<svg data-v-423bf9ae="" xmlns="http://www.w3.org/2000/svg" viewBox="0 0 422 90" class="iconLeft"><!----><!----><!----><g data-v-423bf9ae="" id="e7369001-6da6-4609-9ff0-fc40509f964e" fill="#000000" transform="matrix(5.2863438788431925,0,0,5.2863438788431925,113.5318314041788,0.19823858340447487)"><path d="M6.20 14L5.60 11.33L2.80 11.33L2.20 14L0.59 14L2.79 4.20L5.61 4.20L7.81 14L6.20 14ZM3.09 10.00L5.31 10.00L4.26 5.35L4.14 5.35L3.09 10.00ZM14.97 8.22L14.97 8.22Q14.29 8.22 13.82 8.53L13.82 8.53L13.82 8.53Q13.34 8.83 13.13 9.23L13.13 9.23L13.13 12.67L15.34 12.67L15.34 14L9.84 14L9.84 12.67L11.55 12.67L11.55 8.33L9.84 8.33L9.84 7L12.71 7L12.98 7.85L12.98 7.85Q13.36 7.36 13.93 7.10L13.93 7.10L13.93 7.10Q14.50 6.83 15.25 6.83L15.25 6.83L15.25 6.83Q15.92 6.83 16.45 7.10L16.45 7.10L15.99 8.44L15.99 8.44Q15.92 8.37 15.64 8.29L15.64 8.29L15.64 8.29Q15.37 8.22 14.97 8.22L14.97 8.22ZM23.70 8.33L21.24 8.33L21.24 11.83L21.24 11.83Q21.24 12.45 21.43 12.67L21.43 12.67L21.43 12.67Q21.63 12.89 21.99 12.89L21.99 12.89L21.99 12.89Q22.46 12.89 23.27 12.71L23.27 12.71L23.27 14L23.27 14Q23.23 14 22.85 14.08L22.85 14.08L22.85 14.08Q22.47 14.15 21.70 14.15L21.70 14.15L21.70 14.15Q19.67 14.15 19.67 12.29L19.67 12.29L19.67 8.33L17.71 8.33L17.71 7L19.67 7L19.67 4.48L21.24 4.48L21.24 7L23.70 7L23.70 8.33ZM28.67 12.67L33.03 12.67L33.03 14L27.10 14L27.10 4.20L28.67 4.20L28.67 12.67ZM37.90 5.46L37.90 5.46Q37.37 5.46 37.01 5.10L37.01 5.10L37.01 5.10Q36.65 4.75 36.65 4.23L36.65 4.23L36.65 4.23Q36.65 3.71 37.01 3.35L37.01 3.35L37.01 3.35Q37.37 3.00 37.90 3.00L37.90 3.00L37.90 3.00Q38.43 3.00 38.78 3.35L38.78 3.35L38.78 3.35Q39.13 3.70 39.13 4.23L39.13 4.23L39.13 4.23Q39.13 4.75 38.78 5.10L38.78 5.10L38.78 5.10Q38.43 5.46 37.90 5.46L37.90 5.46ZM38.71 12.67L40.61 12.67L40.61 14L37.14 14L37.14 8.33L34.80 8.33L34.80 7L38.71 7L38.71 12.67ZM46.90 6.85L46.90 6.85Q48.15 6.85 48.80 7.62L48.80 7.62L48.80 7.62Q49.46 8.39 49.46 10.05L49.46 10.05L49.46 14L47.89 14L47.89 10.33L47.89 10.33Q47.89 9.53 47.80 9.09L47.80 9.09L47.80 9.09Q47.71 8.64 47.44 8.41L47.44 8.41L47.44 8.41Q47.17 8.19 46.62 8.19L46.62 8.19L46.62 8.19Q45.96 8.19 45.53 8.54L45.53 8.54L45.53 8.54Q45.09 8.89 44.87 9.34L44.87 9.34L44.87 14L43.30 14L43.30 9.17L43.30 7L44.46 7L44.46 7Q44.49 7.07 44.55 7.31L44.55 7.31L44.55 7.31Q44.62 7.55 44.72 7.84L44.72 7.84L44.72 7.84Q45.08 7.36 45.63 7.10L45.63 7.10L45.63 7.10Q46.19 6.85 46.90 6.85L46.90 6.85ZM56.41 14L53.77 11.03L53.31 11.03L53.31 14L51.74 14L51.74 2.80L53.31 2.80L53.31 9.72L53.68 9.72L56.17 7L58.06 7L54.98 10.33L58.30 14L56.41 14Z"></path></g><defs data-v-423bf9ae=""><linearGradient data-v-423bf9ae="" gradientTransform="rotate(25)" id="8ce184d1-f654-495f-b4e9-46abdb431bfc" x1="0%" y1="0%" x2="100%" y2="0%"><stop data-v-423bf9ae="" offset="0%" style="stop-color: rgb(0, 10, 104); stop-opacity: 1;"></stop><stop data-v-423bf9ae="" offset="100%" style="stop-color: rgb(0, 196, 238); stop-opacity: 1;"></stop></linearGradient></defs><g data-v-423bf9ae="" id="e66b9419-63e6-4c10-867b-002944a4d9a4" transform="matrix(3.02033690133878,0,0,3.02033690133878,0.6746095785795205,-6.44676146975133)" stroke="none" fill="url(#8ce184d1-f654-495f-b4e9-46abdb431bfc)"><circle cx="25.044" cy="25.043" r="6.956"></circle><circle cx="6.956" cy="25.043" r="6.956"></circle><path d="M.172 2.201H13.74v13.568H.172zM18.432 2.201H32v13.568H18.432z"></path></g><!----></svg>